<svg id="svg" version="1.1" xmlns="http://www.w3.org/2000/svg" xmlns:xlink="http://www.w3.org/1999/xlink" width="400" height="78.04878048780488" viewBox="0, 0, 400,78.04878048780488"><g id="svgg"><path id="path0" d="M394.037 0.292 C 394.098 0.523,394.007 0.583,393.599 0.583 C 393.141 0.583,393.078 0.643,393.032 1.115 C 392.987 1.578,392.912 1.654,392.449 1.699 C 391.961 1.746,391.919 1.796,391.943 2.307 C 391.969 2.855,391.959 2.863,391.401 2.758 C 390.842 2.653,390.833 2.660,390.833 3.242 C 390.833 3.814,390.813 3.833,390.208 3.836 C 389.254 3.839,388.871 3.994,388.764 4.419 C 388.700 4.676,388.502 4.843,388.178 4.914 C 387.810 4.995,387.662 5.143,387.581 5.511 C 387.492 5.916,387.390 6.000,386.987 6.000 C 386.559 6.000,386.500 6.060,386.500 6.489 C 386.500 6.920,386.435 6.985,385.958 7.031 C 385.469 7.078,385.417 7.135,385.418 7.625 C 385.420 8.123,385.377 8.167,384.887 8.167 C 384.408 8.167,384.349 8.221,384.302 8.708 C 384.259 9.155,384.177 9.253,383.833 9.268 C 383.604 9.278,383.244 9.297,383.034 9.310 C 382.798 9.324,382.542 9.525,382.367 9.832 C 382.179 10.162,381.951 10.332,381.694 10.332 C 381.417 10.333,381.251 10.474,381.121 10.819 C 380.996 11.150,380.789 11.334,380.469 11.398 C 380.081 11.475,380.000 11.577,380.000 11.985 C 380.000 12.420,379.936 12.485,379.458 12.531 C 378.984 12.577,378.910 12.649,378.865 13.119 C 378.817 13.615,378.777 13.647,378.323 13.556 C 377.853 13.462,377.833 13.483,377.833 14.063 C 377.833 14.621,377.796 14.667,377.341 14.667 C 376.684 14.667,376.029 14.981,375.910 15.353 C 375.854 15.532,375.585 15.698,375.250 15.761 C 374.800 15.845,374.664 15.964,374.580 16.350 C 374.492 16.749,374.388 16.833,373.987 16.833 C 373.559 16.833,373.500 16.893,373.500 17.323 C 373.500 17.753,373.435 17.819,372.958 17.864 C 372.469 17.912,372.417 17.969,372.418 18.458 C 372.420 18.959,372.379 19.000,371.877 19.000 C 371.365 19.000,371.333 19.035,371.333 19.594 C 371.333 20.164,371.311 20.186,370.792 20.136 C 370.348 20.093,370.247 20.144,370.233 20.417 C 370.224 20.600,370.205 20.844,370.191 20.958 C 370.175 21.097,369.858 21.167,369.246 21.167 C 368.357 21.167,367.766 21.654,368.066 22.139 C 368.104 22.200,366.680 22.250,364.901 22.250 C 363.122 22.250,361.740 22.226,361.829 22.196 C 361.918 22.166,361.829 21.922,361.631 21.654 L 361.271 21.167 357.649 21.167 L 354.026 21.167 353.918 20.674 C 353.775 20.023,353.782 20.024,349.799 20.056 L 346.348 20.083 346.299 19.583 L 346.250 19.083 342.537 19.038 L 338.824 18.994 338.726 18.506 C 338.599 17.870,338.485 17.854,334.458 17.888 C 331.485 17.914,331.167 17.890,331.167 17.639 C 331.167 16.826,331.205 16.833,327.232 16.833 L 323.500 16.833 323.500 16.352 C 323.500 15.733,323.238 15.688,319.833 15.724 L 317.250 15.752 317.198 16.293 L 317.146 16.833 315.584 16.833 C 313.853 16.833,313.177 17.009,313.050 17.492 C 312.957 17.851,312.198 18.085,311.673 17.919 C 310.930 17.683,309.812 18.010,309.636 18.515 C 309.473 18.983,309.455 18.988,307.944 19.036 C 306.433 19.083,306.416 19.088,306.366 19.522 C 306.310 20.005,305.418 20.278,304.579 20.067 C 303.722 19.852,303.000 20.129,303.000 20.674 L 303.000 21.167 301.417 21.167 C 299.716 21.167,299.777 21.133,299.782 22.083 C 299.782 22.183,299.139 22.250,298.183 22.250 L 296.583 22.250 296.531 22.792 L 296.479 23.333 294.924 23.333 C 293.303 23.333,293.167 23.396,293.167 24.139 C 293.167 24.379,292.958 24.415,291.625 24.406 C 289.488 24.391,289.096 24.487,289.031 25.042 C 288.979 25.488,288.978 25.488,287.364 25.536 C 285.759 25.583,285.750 25.586,285.699 26.021 C 285.639 26.537,284.992 26.709,283.689 26.555 C 282.820 26.452,282.333 26.736,282.333 27.345 C 282.333 27.640,282.203 27.667,280.750 27.667 L 279.167 27.667 279.167 28.143 C 279.167 28.683,278.358 28.885,276.833 28.727 C 276.007 28.640,275.000 29.110,275.000 29.581 C 275.000 29.786,274.745 29.833,273.656 29.833 C 272.195 29.833,271.667 30.007,271.667 30.488 C 271.667 30.875,271.041 31.049,270.107 30.919 C 269.072 30.776,268.428 31.010,268.364 31.553 L 268.311 32.000 266.757 32.000 C 265.199 32.000,264.657 32.311,265.065 32.971 C 265.107 33.038,264.528 33.077,263.779 33.057 C 262.019 33.010,261.833 33.070,261.833 33.678 L 261.833 34.167 260.304 34.167 C 258.789 34.167,258.770 34.172,258.331 34.697 C 257.896 35.219,257.861 35.228,256.374 35.249 C 254.787 35.272,254.333 35.443,254.333 36.020 C 254.333 36.303,254.190 36.333,252.854 36.333 C 251.287 36.333,250.878 36.514,251.039 37.132 C 251.110 37.404,251.004 37.429,249.934 37.392 C 248.200 37.332,247.838 37.434,247.722 38.015 L 247.625 38.500 246.063 38.500 L 244.500 38.500 244.500 38.979 C 244.500 39.501,243.398 39.815,242.423 39.570 C 241.657 39.378,241.167 39.612,241.167 40.170 L 241.167 40.667 239.583 40.667 L 238.000 40.667 238.000 41.208 L 238.000 41.750 236.625 41.725 C 234.327 41.683,233.834 41.790,233.721 42.353 L 233.625 42.833 229.326 42.833 L 225.026 42.833 224.919 42.344 C 224.779 41.704,224.641 41.684,220.633 41.724 L 217.349 41.757 217.299 41.253 L 217.250 40.750 213.815 40.705 L 210.381 40.660 209.869 40.098 L 209.358 39.536 205.770 39.567 L 202.183 39.598 202.133 39.091 L 202.083 38.583 198.667 38.500 C 195.213 38.416,194.500 38.282,194.500 37.721 C 194.500 37.396,194.077 37.361,190.466 37.392 L 187.015 37.422 186.966 36.919 L 186.917 36.417 185.375 36.369 L 183.833 36.321 183.833 36.874 L 183.833 37.427 182.458 37.390 C 180.685 37.344,180.500 37.402,180.500 38.011 L 180.500 38.500 178.917 38.500 L 177.333 38.500 177.333 38.978 C 177.333 39.533,176.679 39.731,175.417 39.558 C 174.544 39.438,174.000 39.704,174.000 40.250 C 174.000 40.645,173.966 40.655,172.458 40.702 C 170.925 40.750,170.916 40.752,170.865 41.195 C 170.813 41.650,169.781 42.027,169.339 41.753 C 168.863 41.459,167.652 41.867,167.554 42.353 C 167.459 42.831,167.451 42.833,166.218 42.833 C 164.843 42.833,164.333 43.015,164.333 43.506 C 164.333 43.875,164.328 43.876,162.816 43.901 C 161.649 43.919,161.167 44.150,161.167 44.687 C 161.167 44.963,161.030 45.000,160.000 45.000 L 158.833 45.000 158.833 45.542 L 158.833 46.083 157.375 46.060 C 155.808 46.035,155.500 46.152,155.500 46.770 C 155.500 47.160,155.473 47.167,153.917 47.167 L 152.333 47.167 152.333 47.667 C 152.333 48.223,152.140 48.275,150.399 48.186 C 149.479 48.139,149.000 48.419,149.000 49.006 C 149.000 49.289,148.842 49.326,147.458 49.369 C 145.929 49.416,145.916 49.420,145.866 49.858 C 145.808 50.352,145.061 50.605,144.259 50.404 C 143.435 50.197,142.717 50.455,142.609 50.997 L 142.511 51.487 140.964 51.535 L 139.417 51.583 139.364 52.042 C 139.305 52.554,139.357 52.537,137.740 52.578 C 136.378 52.612,136.167 52.704,136.167 53.260 C 136.167 53.654,136.128 53.667,134.958 53.669 C 133.409 53.672,133.051 53.775,132.930 54.255 C 132.791 54.808,132.370 54.886,130.227 54.752 C 128.862 54.667,128.333 54.574,128.333 54.421 C 128.333 53.865,127.803 53.751,124.850 53.667 L 121.917 53.583 121.865 53.134 C 121.805 52.619,120.850 52.366,119.747 52.573 C 118.679 52.773,116.355 52.498,116.247 52.158 C 116.088 51.655,115.219 51.500,112.570 51.500 L 110.022 51.500 109.969 51.053 C 109.897 50.439,109.572 50.380,106.386 50.402 C 104.904 50.412,103.765 50.376,103.854 50.321 C 103.948 50.263,103.907 50.131,103.758 50.007 C 103.616 49.889,103.500 49.689,103.500 49.563 C 103.500 49.377,102.976 49.333,100.761 49.333 L 98.022 49.333 97.969 48.881 C 97.899 48.278,97.507 48.210,94.278 48.238 L 91.690 48.260 91.587 47.713 L 91.485 47.167 88.842 47.167 L 86.199 47.167 86.025 46.667 C 85.821 46.082,86.183 46.131,81.667 46.085 C 77.913 46.046,77.500 46.111,77.500 46.740 C 77.500 47.148,77.477 47.155,75.958 47.202 C 74.431 47.250,74.416 47.254,74.366 47.688 C 74.308 48.186,73.564 48.403,72.497 48.232 C 71.656 48.098,71.000 48.393,71.000 48.906 C 71.000 49.315,70.977 49.322,69.458 49.369 C 67.932 49.416,67.916 49.421,67.866 49.855 C 67.807 50.364,67.114 50.555,65.917 50.391 C 65.044 50.271,64.500 50.537,64.500 51.083 C 64.500 51.479,64.466 51.489,62.958 51.535 C 61.432 51.583,61.416 51.588,61.366 52.021 C 61.307 52.531,60.614 52.722,59.417 52.558 C 58.544 52.438,58.000 52.704,58.000 53.250 C 58.000 53.645,57.966 53.655,56.458 53.702 C 54.932 53.750,54.916 53.754,54.866 54.188 C 54.807 54.698,54.114 54.888,52.917 54.724 C 52.040 54.604,51.500 54.870,51.500 55.423 C 51.500 55.830,51.488 55.833,49.917 55.833 L 48.333 55.833 48.333 56.312 C 48.333 56.838,47.476 57.126,46.579 56.901 C 45.722 56.685,45.000 56.963,45.000 57.508 L 45.000 58.000 43.417 58.000 L 41.833 58.000 41.833 58.479 C 41.833 59.026,41.123 59.247,39.964 59.059 C 38.961 58.896,38.500 59.089,38.500 59.670 L 38.500 60.167 36.917 60.167 L 35.333 60.167 35.314 60.625 C 35.303 60.877,35.298 61.125,35.303 61.175 C 35.307 61.226,34.772 61.249,34.114 61.226 C 32.324 61.164,32.000 61.259,32.000 61.847 L 32.000 62.333 30.417 62.333 C 28.716 62.333,28.775 62.300,28.782 63.253 C 28.783 63.357,28.294 63.407,27.517 63.382 C 25.739 63.323,25.500 63.397,25.500 64.003 L 25.500 64.500 23.935 64.500 C 22.365 64.500,21.823 64.809,22.232 65.471 C 22.273 65.538,21.694 65.577,20.945 65.557 C 19.186 65.510,19.000 65.570,19.000 66.178 L 19.000 66.667 17.435 66.667 C 15.865 66.667,15.323 66.976,15.732 67.637 C 15.773 67.704,15.194 67.743,14.445 67.723 C 12.686 67.677,12.500 67.736,12.500 68.345 L 12.500 68.833 10.935 68.833 C 9.365 68.833,8.823 69.142,9.232 69.804 C 9.273 69.871,8.694 69.910,7.945 69.890 C 6.186 69.844,6.000 69.903,6.000 70.511 L 6.000 71.000 4.420 71.000 C 2.821 71.000,2.310 71.288,2.722 71.955 C 2.770 72.032,2.177 72.080,1.405 72.062 L -0.000 72.028 -0.000 74.764 C -0.000 77.085,0.038 77.500,0.250 77.500 C 0.388 77.500,0.500 77.612,0.500 77.750 C 0.500 77.959,0.852 78.000,2.667 78.000 C 4.481 78.000,4.833 77.959,4.833 77.750 C 4.833 77.557,5.069 77.496,5.875 77.480 C 7.527 77.449,7.908 77.323,7.969 76.791 L 8.022 76.333 9.478 76.333 C 10.979 76.333,11.333 76.200,11.333 75.633 C 11.333 75.379,11.490 75.330,12.375 75.314 C 13.948 75.284,14.386 75.151,14.500 74.666 C 14.593 74.268,14.659 74.248,15.999 74.201 C 17.461 74.150,17.833 74.004,17.833 73.480 C 17.833 73.210,17.966 73.166,18.792 73.165 C 20.503 73.162,20.953 73.026,21.062 72.481 L 21.158 72.000 22.482 72.000 C 24.078 72.000,24.333 71.917,24.333 71.399 C 24.333 71.020,24.386 71.000,25.396 71.000 C 27.058 71.000,27.465 70.874,27.586 70.320 L 27.690 69.846 29.220 69.798 L 30.750 69.750 30.803 69.292 C 30.854 68.846,30.884 68.833,31.907 68.833 C 33.571 68.833,34.002 68.700,34.112 68.150 L 34.206 67.679 35.728 67.631 L 37.250 67.583 37.303 67.125 C 37.355 66.673,37.371 66.667,38.553 66.664 C 40.179 66.661,40.497 66.556,40.611 65.984 L 40.706 65.512 42.228 65.464 L 43.750 65.417 43.803 64.958 C 43.855 64.505,43.868 64.500,45.084 64.500 C 46.639 64.500,47.167 64.313,47.167 63.760 C 47.167 63.352,47.190 63.345,48.708 63.298 L 50.250 63.250 50.303 62.792 C 50.355 62.334,50.358 62.333,51.689 62.333 C 53.218 62.333,53.667 62.162,53.667 61.577 C 53.667 61.170,53.678 61.167,55.250 61.167 L 56.833 61.167 56.833 60.667 L 56.833 60.167 58.178 60.167 C 59.718 60.167,60.167 59.996,60.167 59.411 C 60.167 59.003,60.178 59.000,61.750 59.000 L 63.333 59.000 63.333 58.500 L 63.333 58.000 64.625 57.998 C 66.401 57.995,66.667 57.905,66.667 57.314 L 66.667 56.833 68.254 56.833 L 69.842 56.833 69.942 56.333 L 70.042 55.833 71.341 55.833 C 72.963 55.833,73.167 55.757,73.167 55.149 L 73.167 54.667 74.754 54.667 L 76.342 54.667 76.442 54.167 L 76.542 53.667 77.841 53.667 C 79.463 53.667,79.667 53.590,79.667 52.982 L 79.667 52.500 81.917 52.500 C 84.007 52.500,84.167 52.522,84.167 52.813 C 84.167 53.479,84.583 53.581,87.578 53.641 L 90.439 53.699 90.622 54.183 L 90.804 54.667 93.466 54.667 C 95.994 54.667,96.132 54.684,96.216 55.002 C 96.380 55.633,97.289 55.833,99.984 55.833 L 102.478 55.833 102.531 56.292 L 102.583 56.750 105.462 56.796 C 108.410 56.842,109.000 56.987,109.000 57.663 C 109.000 57.926,109.602 58.000,112.081 58.043 C 114.264 58.081,114.417 58.105,114.476 58.417 C 114.578 58.960,114.783 58.995,117.875 58.997 L 120.833 59.000 120.833 59.411 C 120.833 60.055,121.289 60.167,123.906 60.167 C 125.899 60.167,126.333 60.209,126.333 60.405 C 126.333 61.108,126.677 61.167,130.771 61.167 L 134.684 61.167 134.858 60.667 C 135.028 60.181,135.065 60.166,136.141 60.150 C 137.704 60.127,138.072 59.998,138.136 59.452 C 138.188 59.003,138.199 59.000,139.497 59.000 C 141.078 59.000,141.333 58.916,141.333 58.399 C 141.333 58.025,141.392 58.000,142.292 57.998 C 144.018 57.995,144.505 57.850,144.613 57.310 C 144.706 56.845,144.735 56.833,145.771 56.833 L 146.833 56.833 146.833 56.333 L 146.833 55.833 148.229 55.833 C 150.167 55.833,150.658 55.710,150.981 55.142 C 151.221 54.719,151.340 54.669,152.104 54.668 C 153.434 54.666,154.007 54.501,154.208 54.060 C 154.367 53.710,154.498 53.667,155.402 53.666 C 156.493 53.665,157.500 53.227,157.500 52.752 C 157.500 52.551,157.736 52.500,158.667 52.500 L 159.833 52.500 159.833 52.000 L 159.833 51.500 161.236 51.500 C 162.968 51.500,163.167 51.430,163.167 50.816 L 163.167 50.333 164.750 50.333 L 166.333 50.333 166.333 49.833 L 166.333 49.333 167.736 49.333 C 169.468 49.333,169.667 49.263,169.667 48.649 L 169.667 48.167 171.250 48.167 L 172.833 48.167 172.833 47.667 L 172.833 47.167 174.236 47.167 C 175.964 47.167,176.167 47.095,176.167 46.488 L 176.167 46.013 177.708 45.965 L 179.250 45.917 179.303 45.458 C 179.355 45.001,179.358 45.000,180.689 45.000 C 182.213 45.000,182.667 44.828,182.667 44.250 C 182.667 43.855,182.701 43.845,184.207 43.798 L 185.747 43.750 185.854 43.250 C 185.913 42.975,185.969 42.876,185.980 43.030 C 186.033 43.773,186.333 43.833,189.996 43.833 L 193.467 43.833 193.633 44.309 C 193.850 44.932,194.267 44.996,198.125 44.998 C 201.037 45.000,201.167 45.014,201.167 45.327 C 201.167 45.913,201.692 46.000,205.223 46.000 L 208.634 46.000 208.800 46.475 C 209.017 47.099,209.433 47.163,213.292 47.165 C 216.109 47.167,216.333 47.189,216.333 47.467 C 216.333 48.118,216.607 48.167,220.287 48.167 L 223.842 48.167 223.938 48.646 C 224.067 49.296,224.424 49.333,230.462 49.333 C 235.673 49.333,236.500 49.206,236.500 48.403 C 236.500 48.220,236.782 48.167,237.750 48.167 L 239.000 48.167 239.000 47.667 L 239.000 47.167 240.458 47.165 C 242.700 47.162,243.165 47.048,243.280 46.477 L 243.375 46.000 244.917 46.000 L 246.458 46.000 246.558 45.500 L 246.658 45.000 247.982 45.000 C 249.627 45.000,249.833 44.924,249.833 44.322 L 249.833 43.845 251.458 43.798 L 253.083 43.750 253.135 43.298 C 253.188 42.847,253.191 42.845,254.719 42.798 L 256.250 42.750 256.302 42.208 L 256.354 41.667 258.311 41.667 C 260.329 41.667,260.667 41.566,260.667 40.967 C 260.667 40.706,260.823 40.666,261.875 40.664 C 263.500 40.661,263.778 40.569,263.893 39.992 L 263.989 39.513 265.536 39.465 L 267.083 39.417 267.136 38.958 L 267.189 38.500 268.644 38.500 C 270.196 38.500,270.500 38.372,270.500 37.717 C 270.500 37.344,270.543 37.333,272.066 37.333 C 273.575 37.333,273.651 37.315,274.167 36.833 C 274.617 36.413,274.838 36.333,275.559 36.331 C 277.149 36.328,277.696 36.166,277.894 35.641 C 278.072 35.169,278.080 35.167,279.545 35.167 L 281.017 35.167 281.192 34.667 C 281.363 34.174,281.384 34.167,282.558 34.164 C 284.225 34.161,284.500 34.065,284.500 33.487 L 284.500 33.012 286.125 32.964 L 287.750 32.917 287.803 32.458 L 287.855 32.000 289.350 32.000 C 290.593 32.000,290.862 31.953,290.951 31.721 C 291.220 31.019,291.628 30.833,292.906 30.833 C 294.336 30.833,294.996 30.634,295.119 30.165 C 295.192 29.884,295.348 29.833,296.144 29.831 C 297.814 29.828,298.348 29.675,298.531 29.148 C 298.693 28.685,298.714 28.678,300.223 28.631 L 301.750 28.583 301.803 28.125 C 301.855 27.668,301.858 27.667,303.189 27.667 C 304.718 27.667,305.167 27.495,305.167 26.911 C 305.167 26.503,305.178 26.500,306.750 26.500 L 308.333 26.500 308.333 26.006 L 308.333 25.512 309.958 25.464 L 311.583 25.417 311.636 24.875 L 311.688 24.333 313.438 24.333 C 315.304 24.333,315.833 24.185,315.833 23.661 C 315.833 23.367,315.957 23.332,317.042 23.317 C 318.705 23.294,319.071 23.172,319.136 22.618 C 319.215 21.940,320.181 21.956,320.439 22.641 C 320.678 23.273,321.083 23.329,325.447 23.331 L 328.978 23.333 329.031 23.792 L 329.083 24.250 332.864 24.295 L 336.645 24.340 336.698 24.788 C 336.771 25.416,337.065 25.464,340.919 25.483 C 344.195 25.500,344.257 25.507,344.419 25.870 C 344.661 26.413,345.056 26.465,349.104 26.483 L 352.792 26.500 352.887 26.978 C 353.018 27.631,353.209 27.662,357.107 27.664 L 360.464 27.667 360.567 28.076 C 360.712 28.655,361.052 28.687,366.500 28.632 L 371.250 28.583 371.303 28.125 C 371.347 27.741,371.435 27.667,371.844 27.667 C 372.292 27.667,372.333 27.617,372.333 27.083 C 372.333 26.503,372.337 26.500,373.083 26.500 C 373.804 26.500,374.500 26.097,374.500 25.680 C 374.500 25.596,374.720 25.478,374.989 25.419 C 375.357 25.338,375.505 25.190,375.586 24.822 C 375.675 24.418,375.777 24.333,376.180 24.333 C 376.607 24.333,376.667 24.274,376.667 23.844 C 376.667 23.414,376.732 23.348,377.208 23.302 C 377.685 23.256,377.756 23.185,377.802 22.708 C 377.848 22.232,377.914 22.167,378.344 22.167 C 378.777 22.167,378.833 22.109,378.833 21.667 C 378.833 21.251,378.900 21.167,379.229 21.167 C 380.198 21.167,380.700 20.955,380.867 20.476 C 380.988 20.127,381.142 20.000,381.442 20.000 C 381.743 20.000,381.895 19.873,382.018 19.519 C 382.137 19.179,382.330 19.009,382.676 18.940 C 383.087 18.858,383.167 18.761,383.167 18.348 C 383.167 17.913,383.231 17.848,383.708 17.802 C 384.160 17.759,384.259 17.674,384.303 17.292 C 384.347 16.908,384.435 16.833,384.844 16.833 C 385.292 16.833,385.333 16.784,385.333 16.250 C 385.333 15.697,385.363 15.667,385.906 15.667 C 386.746 15.667,387.333 15.397,387.333 15.012 C 387.333 14.768,387.483 14.654,387.907 14.574 C 388.370 14.487,388.491 14.381,388.532 14.025 C 388.574 13.662,388.679 13.574,389.125 13.531 C 389.598 13.485,389.667 13.418,389.667 13.000 C 389.667 12.582,389.735 12.515,390.208 12.469 C 390.685 12.423,390.756 12.351,390.802 11.875 C 390.848 11.399,390.914 11.333,391.344 11.333 C 391.777 11.333,391.833 11.275,391.833 10.833 C 391.833 10.399,391.894 10.333,392.292 10.333 C 392.855 10.332,393.833 9.759,393.833 9.430 C 393.833 9.279,394.036 9.168,394.368 9.136 C 394.778 9.096,394.926 8.988,394.999 8.676 C 395.065 8.392,395.257 8.226,395.630 8.129 C 396.080 8.013,396.167 7.912,396.167 7.506 C 396.167 7.081,396.233 7.015,396.708 6.969 C 397.160 6.925,397.259 6.840,397.303 6.458 C 397.347 6.074,397.435 6.000,397.844 6.000 C 398.292 6.000,398.333 5.951,398.333 5.417 C 398.333 4.892,398.379 4.833,398.792 4.831 C 399.961 4.825,400.000 4.771,400.000 3.147 C 400.000 1.931,399.955 1.667,399.746 1.667 C 399.599 1.667,399.451 1.463,399.395 1.184 C 399.322 0.818,399.182 0.678,398.816 0.605 C 398.537 0.549,398.333 0.401,398.333 0.254 C 398.333 0.039,397.995 0.000,396.147 0.000 C 394.147 0.000,393.968 0.025,394.037 0.292 " stroke="none" fill="#2cbc7c" fill-rule="evenodd"></path><path id="path1" d="M319.121 15.787 C 319.417 15.824,319.942 15.824,320.288 15.788 C 320.634 15.752,320.392 15.722,319.750 15.721 C 319.108 15.721,318.825 15.750,319.121 15.787 M334.625 17.954 C 334.923 17.991,335.410 17.991,335.708 17.954 C 336.006 17.917,335.762 17.887,335.167 17.887 C 334.571 17.887,334.327 17.917,334.625 17.954 M349.958 20.121 C 350.256 20.158,350.744 20.158,351.042 20.121 C 351.340 20.084,351.096 20.053,350.500 20.053 C 349.904 20.053,349.660 20.084,349.958 20.121 M365.125 22.287 C 365.423 22.324,365.910 22.324,366.208 22.287 C 366.506 22.250,366.262 22.220,365.667 22.220 C 365.071 22.220,364.827 22.250,365.125 22.287 M291.042 24.448 C 291.202 24.490,291.465 24.490,291.625 24.448 C 291.785 24.406,291.654 24.372,291.333 24.372 C 291.012 24.372,290.881 24.406,291.042 24.448 M270.375 30.948 C 270.535 30.990,270.798 30.990,270.958 30.948 C 271.119 30.906,270.987 30.872,270.667 30.872 C 270.346 30.872,270.215 30.906,270.375 30.948 M256.542 35.282 C 256.702 35.323,256.965 35.323,257.125 35.282 C 257.285 35.240,257.154 35.205,256.833 35.205 C 256.512 35.205,256.381 35.240,256.542 35.282 M190.792 37.454 C 191.090 37.491,191.577 37.491,191.875 37.454 C 192.173 37.417,191.929 37.387,191.333 37.387 C 190.737 37.387,190.494 37.417,190.792 37.454 M205.792 39.621 C 206.090 39.658,206.577 39.658,206.875 39.621 C 207.173 39.584,206.929 39.553,206.333 39.553 C 205.737 39.553,205.494 39.584,205.792 39.621 M242.708 39.615 C 242.869 39.657,243.131 39.657,243.292 39.615 C 243.452 39.573,243.321 39.539,243.000 39.539 C 242.679 39.539,242.548 39.573,242.708 39.615 M220.958 41.787 C 221.256 41.824,221.744 41.824,222.042 41.787 C 222.340 41.750,222.096 41.720,221.500 41.720 C 220.904 41.720,220.660 41.750,220.958 41.787 M82.208 46.119 C 82.460 46.158,82.873 46.158,83.125 46.119 C 83.377 46.081,83.171 46.050,82.667 46.050 C 82.162 46.050,81.956 46.081,82.208 46.119 M94.208 48.286 C 94.460 48.324,94.873 48.324,95.125 48.286 C 95.377 48.248,95.171 48.217,94.667 48.217 C 94.162 48.217,93.956 48.248,94.208 48.286 M106.375 50.453 C 106.627 50.491,107.040 50.491,107.292 50.453 C 107.544 50.415,107.337 50.383,106.833 50.383 C 106.329 50.383,106.123 50.415,106.375 50.453 M118.375 52.619 C 118.627 52.658,119.040 52.658,119.292 52.619 C 119.544 52.581,119.337 52.550,118.833 52.550 C 118.329 52.550,118.123 52.581,118.375 52.619 M130.708 54.788 C 131.052 54.824,131.615 54.824,131.958 54.788 C 132.302 54.752,132.021 54.723,131.333 54.723 C 130.646 54.723,130.365 54.752,130.708 54.788 " stroke="none" fill="#30bc7c" fill-rule="evenodd"></path><path id="path2" d="M319.121 15.787 C 319.417 15.824,319.942 15.824,320.288 15.788 C 320.634 15.752,320.392 15.722,319.750 15.721 C 319.108 15.721,318.825 15.750,319.121 15.787 M334.625 17.954 C 334.923 17.991,335.410 17.991,335.708 17.954 C 336.006 17.917,335.762 17.887,335.167 17.887 C 334.571 17.887,334.327 17.917,334.625 17.954 M349.958 20.121 C 350.256 20.158,350.744 20.158,351.042 20.121 C 351.340 20.084,351.096 20.053,350.500 20.053 C 349.904 20.053,349.660 20.084,349.958 20.121 M365.125 22.287 C 365.423 22.324,365.910 22.324,366.208 22.287 C 366.506 22.250,366.262 22.220,365.667 22.220 C 365.071 22.220,364.827 22.250,365.125 22.287 M291.042 24.448 C 291.202 24.490,291.465 24.490,291.625 24.448 C 291.785 24.406,291.654 24.372,291.333 24.372 C 291.012 24.372,290.881 24.406,291.042 24.448 M270.375 30.948 C 270.535 30.990,270.798 30.990,270.958 30.948 C 271.119 30.906,270.987 30.872,270.667 30.872 C 270.346 30.872,270.215 30.906,270.375 30.948 M256.542 35.282 C 256.702 35.323,256.965 35.323,257.125 35.282 C 257.285 35.240,257.154 35.205,256.833 35.205 C 256.512 35.205,256.381 35.240,256.542 35.282 M190.792 37.454 C 191.090 37.491,191.577 37.491,191.875 37.454 C 192.173 37.417,191.929 37.387,191.333 37.387 C 190.737 37.387,190.494 37.417,190.792 37.454 M205.792 39.621 C 206.090 39.658,206.577 39.658,206.875 39.621 C 207.173 39.584,206.929 39.553,206.333 39.553 C 205.737 39.553,205.494 39.584,205.792 39.621 M242.708 39.615 C 242.869 39.657,243.131 39.657,243.292 39.615 C 243.452 39.573,243.321 39.539,243.000 39.539 C 242.679 39.539,242.548 39.573,242.708 39.615 M220.958 41.787 C 221.256 41.824,221.744 41.824,222.042 41.787 C 222.340 41.750,222.096 41.720,221.500 41.720 C 220.904 41.720,220.660 41.750,220.958 41.787 M82.208 46.119 C 82.460 46.158,82.873 46.158,83.125 46.119 C 83.377 46.081,83.171 46.050,82.667 46.050 C 82.162 46.050,81.956 46.081,82.208 46.119 M94.208 48.286 C 94.460 48.324,94.873 48.324,95.125 48.286 C 95.377 48.248,95.171 48.217,94.667 48.217 C 94.162 48.217,93.956 48.248,94.208 48.286 M106.375 50.453 C 106.627 50.491,107.040 50.491,107.292 50.453 C 107.544 50.415,107.337 50.383,106.833 50.383 C 106.329 50.383,106.123 50.415,106.375 50.453 M118.375 52.619 C 118.627 52.658,119.040 52.658,119.292 52.619 C 119.544 52.581,119.337 52.550,118.833 52.550 C 118.329 52.550,118.123 52.581,118.375 52.619 M130.708 54.788 C 131.052 54.824,131.615 54.824,131.958 54.788 C 132.302 54.752,132.021 54.723,131.333 54.723 C 130.646 54.723,130.365 54.752,130.708 54.788 " stroke="none" fill="#30bc7c" fill-rule="evenodd"></path><path id="path3" d="M319.121 15.787 C 319.417 15.824,319.942 15.824,320.288 15.788 C 320.634 15.752,320.392 15.722,319.750 15.721 C 319.108 15.721,318.825 15.750,319.121 15.787 M334.625 17.954 C 334.923 17.991,335.410 17.991,335.708 17.954 C 336.006 17.917,335.762 17.887,335.167 17.887 C 334.571 17.887,334.327 17.917,334.625 17.954 M349.958 20.121 C 350.256 20.158,350.744 20.158,351.042 20.121 C 351.340 20.084,351.096 20.053,350.500 20.053 C 349.904 20.053,349.660 20.084,349.958 20.121 M365.125 22.287 C 365.423 22.324,365.910 22.324,366.208 22.287 C 366.506 22.250,366.262 22.220,365.667 22.220 C 365.071 22.220,364.827 22.250,365.125 22.287 M291.042 24.448 C 291.202 24.490,291.465 24.490,291.625 24.448 C 291.785 24.406,291.654 24.372,291.333 24.372 C 291.012 24.372,290.881 24.406,291.042 24.448 M270.375 30.948 C 270.535 30.990,270.798 30.990,270.958 30.948 C 271.119 30.906,270.987 30.872,270.667 30.872 C 270.346 30.872,270.215 30.906,270.375 30.948 M256.542 35.282 C 256.702 35.323,256.965 35.323,257.125 35.282 C 257.285 35.240,257.154 35.205,256.833 35.205 C 256.512 35.205,256.381 35.240,256.542 35.282 M190.792 37.454 C 191.090 37.491,191.577 37.491,191.875 37.454 C 192.173 37.417,191.929 37.387,191.333 37.387 C 190.737 37.387,190.494 37.417,190.792 37.454 M205.792 39.621 C 206.090 39.658,206.577 39.658,206.875 39.621 C 207.173 39.584,206.929 39.553,206.333 39.553 C 205.737 39.553,205.494 39.584,205.792 39.621 M242.708 39.615 C 242.869 39.657,243.131 39.657,243.292 39.615 C 243.452 39.573,243.321 39.539,243.000 39.539 C 242.679 39.539,242.548 39.573,242.708 39.615 M220.958 41.787 C 221.256 41.824,221.744 41.824,222.042 41.787 C 222.340 41.750,222.096 41.720,221.500 41.720 C 220.904 41.720,220.660 41.750,220.958 41.787 M82.208 46.119 C 82.460 46.158,82.873 46.158,83.125 46.119 C 83.377 46.081,83.171 46.050,82.667 46.050 C 82.162 46.050,81.956 46.081,82.208 46.119 M94.208 48.286 C 94.460 48.324,94.873 48.324,95.125 48.286 C 95.377 48.248,95.171 48.217,94.667 48.217 C 94.162 48.217,93.956 48.248,94.208 48.286 M106.375 50.453 C 106.627 50.491,107.040 50.491,107.292 50.453 C 107.544 50.415,107.337 50.383,106.833 50.383 C 106.329 50.383,106.123 50.415,106.375 50.453 M118.375 52.619 C 118.627 52.658,119.040 52.658,119.292 52.619 C 119.544 52.581,119.337 52.550,118.833 52.550 C 118.329 52.550,118.123 52.581,118.375 52.619 M130.708 54.788 C 131.052 54.824,131.615 54.824,131.958 54.788 C 132.302 54.752,132.021 54.723,131.333 54.723 C 130.646 54.723,130.365 54.752,130.708 54.788 " stroke="none" fill="#30bc7c" fill-rule="evenodd"></path><path id="path4" d="M319.121 15.787 C 319.417 15.824,319.942 15.824,320.288 15.788 C 320.634 15.752,320.392 15.722,319.750 15.721 C 319.108 15.721,318.825 15.750,319.121 15.787 M334.625 17.954 C 334.923 17.991,335.410 17.991,335.708 17.954 C 336.006 17.917,335.762 17.887,335.167 17.887 C 334.571 17.887,334.327 17.917,334.625 17.954 M349.958 20.121 C 350.256 20.158,350.744 20.158,351.042 20.121 C 351.340 20.084,351.096 20.053,350.500 20.053 C 349.904 20.053,349.660 20.084,349.958 20.121 M365.125 22.287 C 365.423 22.324,365.910 22.324,366.208 22.287 C 366.506 22.250,366.262 22.220,365.667 22.220 C 365.071 22.220,364.827 22.250,365.125 22.287 M291.042 24.448 C 291.202 24.490,291.465 24.490,291.625 24.448 C 291.785 24.406,291.654 24.372,291.333 24.372 C 291.012 24.372,290.881 24.406,291.042 24.448 M270.375 30.948 C 270.535 30.990,270.798 30.990,270.958 30.948 C 271.119 30.906,270.987 30.872,270.667 30.872 C 270.346 30.872,270.215 30.906,270.375 30.948 M256.542 35.282 C 256.702 35.323,256.965 35.323,257.125 35.282 C 257.285 35.240,257.154 35.205,256.833 35.205 C 256.512 35.205,256.381 35.240,256.542 35.282 M190.792 37.454 C 191.090 37.491,191.577 37.491,191.875 37.454 C 192.173 37.417,191.929 37.387,191.333 37.387 C 190.737 37.387,190.494 37.417,190.792 37.454 M205.792 39.621 C 206.090 39.658,206.577 39.658,206.875 39.621 C 207.173 39.584,206.929 39.553,206.333 39.553 C 205.737 39.553,205.494 39.584,205.792 39.621 M242.708 39.615 C 242.869 39.657,243.131 39.657,243.292 39.615 C 243.452 39.573,243.321 39.539,243.000 39.539 C 242.679 39.539,242.548 39.573,242.708 39.615 M220.958 41.787 C 221.256 41.824,221.744 41.824,222.042 41.787 C 222.340 41.750,222.096 41.720,221.500 41.720 C 220.904 41.720,220.660 41.750,220.958 41.787 M82.208 46.119 C 82.460 46.158,82.873 46.158,83.125 46.119 C 83.377 46.081,83.171 46.050,82.667 46.050 C 82.162 46.050,81.956 46.081,82.208 46.119 M94.208 48.286 C 94.460 48.324,94.873 48.324,95.125 48.286 C 95.377 48.248,95.171 48.217,94.667 48.217 C 94.162 48.217,93.956 48.248,94.208 48.286 M106.375 50.453 C 106.627 50.491,107.040 50.491,107.292 50.453 C 107.544 50.415,107.337 50.383,106.833 50.383 C 106.329 50.383,106.123 50.415,106.375 50.453 M118.375 52.619 C 118.627 52.658,119.040 52.658,119.292 52.619 C 119.544 52.581,119.337 52.550,118.833 52.550 C 118.329 52.550,118.123 52.581,118.375 52.619 M130.708 54.788 C 131.052 54.824,131.615 54.824,131.958 54.788 C 132.302 54.752,132.021 54.723,131.333 54.723 C 130.646 54.723,130.365 54.752,130.708 54.788 " stroke="none" fill="#30bc7c" fill-rule="evenodd"></path></g></svg>